#!OML:ASF E:\Style4\Style4.ASF
:FULLY-SPECIFIED
:DEGREES
2954
root 0.245417 17.8875 -1.12803 -0.162236 -1.36651 1.87284
lowerback 2.99263 2.91724 -0.586695
upperback 0.205134 3.85788 -0.723942
thorax -1.45279 1.92849 -0.575172
lowerneck -0.987401 -5.25008 -6.27104
upperneck 9.78913 -7.28513 5.44423
head 3.89591 -3.6398 2.65674
rclavicle 4.69008e-015 -4.32357e-015
rhumerus 36.6922 -10.3304 -45.7139
rradius 75.4654
rwrist -49.7937
rhand -22.6586 31.1283
rfingers 7.12502
rthumb 3.77278 1.18199
lclavicle 4.69008e-015 -4.32357e-015
lhumerus -6.20037 -34.8569 85.6937
lradius 101.68
lwrist 9.33686
lhand -35.4298 8.27138
lfingers 7.12502
lthumb -8.55954 38.0779
rfemur -9.59556 4.76629 15.7476
rtibia 27.82
rfoot -16.9058 -12.8086
rtoes -12.5046
lfemur -8.36894 -2.71572 -21.7106
ltibia 26.4401
lfoot -18.1671 10.1516
ltoes -15.3636
2955
root 0.249396 17.8933 -1.12038 -0.0844914 -1.31277 1.72947
lowerback 2.96845 2.8991 -0.472187
upperback 0.197282 3.83865 -0.664342
thorax -1.44396 1.91835 -0.575953
lowerneck -1.09028 -5.25279 -6.39768
upperneck 9.81623 -7.2876 5.53476
head 3.93769 -3.64096 2.70917
rclavicle -2.40871e-015 -9.93923e-017
rhumerus 35.6588 -11.372 -46.3873
rradius 75.0647
rwrist -49.5238
rhand -22.7653 30.8455
rfingers 7.12502
rthumb 3.66973 0.897387
lclavicle -2.40871e-015 -9.93923e-017
lhumerus -6.82839 -34.6944 85.2655
lradius 101.763
lwrist 9.43434
lhand -35.6313 8.65932
lfingers 7.12502
lthumb -8.75405 38.4578
rfemur -9.53148 4.83007 15.9
rtibia 27.6275
rfoot -16.8532 -12.8906
rtoes -12.8032
lfemur -8.37405 -2.75436 -21.5681
ltibia 26.3414
lfoot -18.1855 10.2174
ltoes -15.675
2956
root 0.253058 17.9 -1.11159 -0.00784156 -1.25563 1.67294
lowerback 2.94813 2.87828 -0.454684
upperback 0.179198 3.81208 -0.627837
thorax -1.45263 1.90506 -0.546794
lowerneck -1.11761 -5.26632 -6.42476
upperneck 10.1002 -7.33558 5.72683
head 3.63981 -3.63833 2.50438
rclavicle -1.62196e-014 -5.46658e-015
rhumerus 34.488 -12.3122 -46.8948
rradius 74.7121
rwrist -49.3783
rhand -22.9517 30.7109
rfingers 7.12502
rthumb 3.48974 0.759705
lclavicle -1.62196e-014 -5.46658e-015
lhumerus -7.54689 -34.4947 84.7999
lradius 101.923
lwrist 9.67207
lhand -35.5289 9.116
lfingers 7.12502
lthumb -8.65519 38.9186
rfemur -9.48113 4.88936 15.9552
rtibia 27.4701
rfoot -16.7826 -12.9878
rtoes -12.5017
lfemur -8.35932 -2.81172 -21.5198
ltibia 26.2224
lfoot -18.1448 10.2135
ltoes -15.7224
2957
root 0.255142 17.9024 -1.10494 0.0670808 -1.15558 1.73064
lowerback 2.95521 2.8591 -0.571034
upperback 0.165307 3.7822 -0.64314
thorax -1.47748 1.8908 -0.497509
lowerneck -1.15419 -5.30571 -6.39798
upperneck 10.0734 -7.38401 5.69857
head 3.63888 -3.66187 2.48839
rclavicle 2.41974e-014 6.26172e-015
rhumerus 33.1839 -13.1975 -47.3238
rradius 74.4092
rwrist -49.3049
rhand -23.2232 30.733
rfingers 7.12502
rthumb 3.22753 0.777717
lclavicle 2.41974e-014 6.26172e-015
lhumerus -8.4503 -34.161 84.4629
lradius 102.107
lwrist 9.67132
lhand -35.3438 9.60073
lfingers 7.12502
lthumb -8.47658 39.4106
rfemur -9.4493 4.87727 15.8876
rtibia 27.3537
rfoot -16.7115 -13.1172
rtoes -12.4712
lfemur -8.35079 -2.92444 -21.5868
ltibia 26.093
lfoot -18.158 10.1867
ltoes -15.606
2958
root 0.256181 17.9044 -1.10046 0.206047 -1.0638 1.75875
lowerback 2.95271 2.86866 -0.671057
upperback 0.11145 3.79096 -0.656414
thorax -1.53688 1.8958 -0.457676
lowerneck -1.21236 -5.37002 -6.38428
upperneck 10.0812 -7.46845 5.69769
head 3.65563 -3.70208 2.48004
rclavicle 4.13099e-016 -2.78299e-015
rhumerus 31.7015 -14.0444 -47.6356
rradius 74.2369
rwrist -49.3009
rhand -23.3286 30.7402
rfingers 7.12502
rthumb 3.12574 0.783335
lclavicle 4.13099e-016 -2.78299e-015
lhumerus -9.43392 -33.8918 84.2694
lradius 102.266
lwrist 9.55105
lhand -35.5321 10.1609
lfingers 7.12502
lthumb -8.6583 39.9633
rfemur -9.54242 4.83393 15.8514
rtibia 27.2934
rfoot -16.7045 -13.1721
rtoes -12.8211
lfemur -8.41321 -3.03212 -21.6031
ltibia 25.9231
lfoot -18.129 10.1127
ltoes -15.3838
2959
root 0.257885 17.907 -1.09436 0.330721 -0.995753 1.78656
lowerback 2.95249 2.86555 -0.756213
upperback 0.0487383 3.78337 -0.657768
thorax -1.60652 1.89266 -0.413669
lowerneck -1.24321 -5.38293 -6.38319
upperneck 9.76302 -7.44605 5.45843
head 3.95471 -3.7191 2.66844
rclavicle -6.76644e-015 1.00883e-014
rhumerus 30.142 -14.7266 -47.874
rradius 74.221
rwrist -49.2685
rhand -23.6289 30.3797
rfingers 7.12502
rthumb 2.83572 0.418813
lclavicle -6.76644e-015 1.00883e-014
lhumerus -10.3862 -33.6211 84.0441
lradius 102.341
lwrist 9.44252
lhand -35.6793 10.7584
lfingers 7.12502
lthumb -8.80035 40.5549
rfemur -9.62 4.82956 15.8089
rtibia 27.248
rfoot -16.7478 -13.216
rtoes -12.706
lfemur -8.45565 -3.09671 -21.6283
ltibia 25.7645
lfoot -18.018 10.0533
ltoes -15.2921
2960
root 0.260469 17.9114 -1.08388 0.39003 -0.961896 1.84283
lowerback 2.93999 2.8508 -0.855523
upperback 0.00334647 3.76034 -0.641386
thorax -1.6536 1.88205 -0.341735
lowerneck -1.09025 -5.32822 -6.46218
upperneck 9.67571 -7.3752 5.47527
head 3.89423 -3.6887 2.69609
rclavicle 3.99868e-014 2.48481e-015
rhumerus 28.5034 -15.2042 -47.916
rradius 74.2497
rwrist -49.2457
rhand -23.9392 29.8699
rfingers 7.12502
rthumb 2.53611 -0.094771
lclavicle 3.99868e-014 2.48481e-015
lhumerus -11.358 -33.1806 83.831
lradius 102.402
lwrist 9.72022
lhand -35.2659 10.8646
lfingers 7.12502
lthumb -8.40137 40.6775
rfemur -9.5943 4.84332 15.7357
rtibia 27.1611
rfoot -16.7387 -13.2843
rtoes -12.393
lfemur -8.42097 -3.14458 -21.7
ltibia 25.6548
lfoot -17.9507 9.94627
ltoes -14.5506
2961
root 0.262872 17.9141 -1.07396 0.429723 -0.96158 1.84258
lowerback 2.94801 2.86394 -0.879105
upperback -0.0150459 3.77691 -0.632704
thorax -1.6791 1.89057 -0.321615
lowerneck -0.997885 -5.32705 -6.50455
upperneck 9.57243 -7.3728 5.47445
head 3.84182 -3.69045 2.706
rclavicle -2.37594e-014 -8.94531e-016
rhumerus 26.7397 -15.6395 -47.8155
rradius 74.3466
rwrist -49.1832
rhand -23.8978 29.9567
rfingers 7.12502
rthumb 2.57607 -0.00749563
lclavicle -2.37594e-014 -8.94531e-016
lhumerus -12.252 -32.7182 83.5408
lradius 102.401
lwrist 10.2865
lhand -34.5579 10.3689
lfingers 7.12502
lthumb -7.71804 40.2081
rfemur -9.53757 4.91134 15.7354
rtibia 27.042
rfoot -16.6846 -13.3453
rtoes -12.588
lfemur -8.3947 -3.18256 -21.7128
ltibia 25.5904
lfoot -17.8528 9.9466
ltoes -14.3926
2962
root 0.266118 17.9163 -1.06725 0.492557 -0.976012 1.73207
lowerback 3.01186 2.89483 -0.75998
upperback -0.00333073 3.82147 -0.632708
thorax -1.69511 1.91182 -0.392861
lowerneck -1.13302 -5.38625 -6.46895
upperneck 9.51112 -7.44029 5.43105
head 3.8466 -3.72195 2.67794
rclavicle -1.94576e-014 9.0944e-015
rhumerus 24.9071 -16.0731 -47.688
rradius 74.5772
rwrist -49.1059
rhand -23.9311 30.1676
rfingers 7.12502
rthumb 2.54393 0.203024
lclavicle -1.94576e-014 9.0944e-015
lhumerus -13.0847 -32.3625 83.1839
lradius 102.334
lwrist 10.7693
lhand -34.1524 9.86312
lfingers 7.12502
lthumb -7.32672 39.7163
rfemur -9.52714 5.00249 15.8568
rtibia 26.9289
rfoot -16.6251 -13.4436
rtoes -12.8326
lfemur -8.41089 -3.19692 -21.5993
ltibia 25.5308
lfoot -17.8384 9.95622
ltoes -14.3043
2963
root 0.269609 17.9182 -1.06027 0.574579 -0.988525 1.62042
lowerback 3.06522 2.89317 -0.65233
upperback -0.0120366 3.82253 -0.622842
thorax -1.72754 1.91147 -0.445867
lowerneck -1.28762 -5.40519 -6.41697
upperneck 9.53377 -7.45623 5.3852
head 3.88017 -3.72723 2.64797
rclavicle 3.73933e-014 6.4605e-015
rhumerus 22.952 -16.266 -47.4071
rradius 74.9819
rwrist -49.185
rhand -24.2347 29.9165
rfingers 7.12502
rthumb 2.25072 -0.0514053
lclavicle 3.73933e-014 6.4605e-015
lhumerus -13.9981 -32.0355 82.8254
lradius 102.254
lwrist 11.1786
lhand -34.0141 9.54304
lfingers 7.12502
lthumb -7.19313 39.4008
rfemur -9.55126 5.0664 15.9737
rtibia 26.8505
rfoot -16.6099 -13.5193
rtoes -12.5936
lfemur -8.44188 -3.22361 -21.4866
ltibia 25.4741
lfoot -17.8726 9.96965
ltoes -14.1576
2964
root 0.272572 17.921 -1.04998 0.658446 -1.00203 1.70244
lowerback 3.03549 2.86893 -0.771395
upperback -0.0452542 3.78556 -0.650773
thorax -1.75088 1.89395 -0.406142
lowerneck -1.27777 -5.36773 -6.31157
upperneck 9.54603 -7.40457 5.31184
head 3.86892 -3.7006 2.60594
rclavicle 6.16869e-014 -3.926e-015
rhumerus 20.9016 -16.2401 -47.0418
rradius 75.3946
rwrist -49.3649
rhand -24.3755 29.6614
rfingers 7.12502
rthumb 2.11471 -0.307856
lclavicle 6.16869e-014 -3.926e-015
lhumerus -15.1213 -31.6428 82.5304
lradius 102.222
lwrist 11.6072
lhand -33.7903 9.63022
lfingers 7.12502
lthumb -6.97715 39.4952
rfemur -9.58175 5.06978 15.8668
rtibia 26.8033
rfoot -16.603 -13.5217
rtoes -12.8619
lfemur -8.46444 -3.22158 -21.5891
ltibia 25.4157
lfoot -17.8774 10.0437
ltoes -14.4834
